<svg width="162" height="166" viewBox="0 0 162 166" fill="none" xmlns="http://www.w3.org/2000/svg">
<g clip-path="url(#clip0_6330_2362)">
<path d="M87.292 0C88.0584 0.860741 88.7175 1.49093 89.254 2.21333C92.7947 7.03963 94.3888 12.6037 95.3851 18.3983C96.55 25.2228 96.5653 32.0626 95.6917 38.9024C95.6763 39.01 95.6917 39.1022 95.6917 39.6094C103.417 32.9387 110.928 26.437 118.637 19.7663C121.09 27.267 123.496 34.6448 126.041 42.3915C129.444 38.5335 132.708 34.8293 136.081 31.0174C136.939 31.9857 137.782 32.8465 138.518 33.7994C142.825 39.3481 146.212 45.4348 148.297 52.1517C151.684 63.0493 151.976 74.0544 149.063 85.1519C146.687 94.1896 142.426 102.244 136.724 109.56C132.448 115.063 127.206 119.581 121.933 124.085C118.729 126.821 115.633 129.664 112.476 132.477C108.26 136.228 104.061 139.978 99.8455 143.728C95.6304 147.479 91.4459 151.244 87.2 154.964C83.2608 158.422 79.2449 161.804 75.2903 165.247C75.0297 165.477 74.5239 165.985 74.5239 165.985C74.5239 165.985 74.0181 165.57 73.6809 165.247C71.4737 163.11 69.2052 161.051 66.9979 158.93C62.6602 154.749 58.3224 150.553 54.0153 146.326C50.2293 142.591 46.474 138.825 42.734 135.044C39.2852 131.57 35.8671 128.081 32.449 124.577C29.1382 121.18 25.7967 117.814 22.5472 114.356C19.2057 110.79 15.7876 107.27 12.7374 103.458C5.54861 94.4817 1.39476 84.1835 0.2605 72.7019C-0.582532 64.2635 0.521073 56.1172 4.35303 48.4935C5.91647 45.3887 7.9091 42.5452 10.4995 40.1781C10.6068 40.0706 11.2659 39.5172 11.2659 39.5172C11.2659 39.5172 11.5878 39.8554 11.8177 40.0859C14.4694 42.7757 17.1671 45.4348 19.8342 48.1093C20.9378 49.2159 22.0414 50.338 23.145 51.46C23.2829 51.5983 23.4669 51.7059 23.6661 51.8443C24.2946 50.0613 24.8157 48.3398 25.5055 46.6644C27.4061 41.9919 30.1651 37.8265 33.292 33.907C34.5949 32.2624 35.8977 30.5717 37.4305 29.1576C41.2165 25.6685 44.8952 21.995 49.7388 19.92C50.0607 19.7817 51.0876 19.4281 51.0876 19.4281C51.0876 19.4281 51.2409 20.043 51.4248 20.7807C52.3598 24.4696 53.5248 28.0663 55.594 31.2941C56.2991 32.4007 57.1881 33.3998 57.9545 34.4757C58.3837 35.0752 58.8589 35.0906 59.4107 34.7217C61.5259 33.3383 63.7791 32.1241 65.7411 30.5563C73.5583 24.3006 79.6587 16.6 84.1651 7.65444C85.1461 5.71778 85.8359 3.62741 86.6482 1.61389C86.8475 1.16815 87.0161 0.707037 87.292 0Z" fill="url(#paint0_radial_6330_2362)"/>
<path d="M89.116 91.0382L51.3482 87.7182C49.4169 87.5492 47.9914 85.8431 48.16 83.9064L50.3059 59.1755C50.4745 57.2388 52.1759 55.8093 54.1072 55.9784L91.875 59.2984C93.8064 59.4675 95.2318 61.1736 95.0632 63.1103L92.902 87.8412C92.7487 89.7779 91.0473 91.2073 89.116 91.0382Z" fill="#005AEB"/>
<path d="M56.682 62.8799L63.181 63.4486C68.1932 63.8943 72.5616 67.0606 72.0098 73.5008C71.4427 79.941 66.5838 82.308 61.5869 81.8623L55.0879 81.2936L56.682 62.8799ZM61.3876 77.8199C64.162 78.0658 66.967 77.1128 67.3195 73.0858C67.6721 69.0588 65.0663 67.6447 62.292 67.3988L61.0044 67.2912L60.1001 77.7123L61.3876 77.8199Z" fill="white"/>
<path d="M74.9681 64.4785L87.9048 65.6159L87.5523 69.6122L79.2906 68.8898L79.03 71.9485L85.529 72.5172L85.1765 76.5135L78.6775 75.9448L78.3862 79.3109L86.9392 80.0641L86.5866 84.0604L73.374 82.9076L74.9681 64.4785Z" fill="white"/>
<path d="M148.251 147.002L66.5845 139.839C64.6532 139.67 63.2277 137.964 63.3964 136.027L65.5576 111.297C65.7262 109.36 67.4276 107.93 69.3589 108.1L151.026 115.262C152.957 115.431 154.382 117.137 154.214 119.074L152.053 143.805C151.884 145.742 150.183 147.171 148.251 147.002Z" fill="#005AEB"/>
<path d="M71.8877 114.985L76.6087 115.4L78.6626 127.22L83.0464 115.969L86.955 116.307L89.3614 128.158L93.4693 116.876L98.1596 117.291L91.2314 135.228L86.6637 134.829L84.3799 123.439L80.1647 134.275L75.6277 133.876L71.8877 114.985Z" fill="white"/>
<path d="M99.5238 117.414L112.46 118.551L112.108 122.548L103.846 121.825L103.586 124.884L110.085 125.453L109.732 129.449L103.233 128.88L102.942 132.246L111.495 133L111.142 136.996L97.9297 135.843L99.5238 117.414Z" fill="white"/>
<path d="M115.097 118.782L128.034 119.92L127.681 123.916L119.419 123.194L119.159 126.252L125.658 126.821L125.305 130.817L118.806 130.249L118.515 133.615L127.068 134.368L126.716 138.364L113.503 137.211L115.097 118.782Z" fill="white"/>
<path d="M129.061 138.563L130.67 120.149L135.36 120.564L134.732 127.742L141.599 121.102L147.393 121.61L140.342 128.28L146.366 140.069L140.434 139.547L136.816 131.57L134.165 134.06L133.736 138.947L129.061 138.563Z" fill="white"/>
<path d="M158.995 104.98L25.5049 124.992C23.589 125.284 21.7956 123.947 21.5197 122.026L17.8563 97.4639C17.5651 95.5426 18.8986 93.7442 20.8146 93.4676L154.305 73.4707C156.221 73.1787 158.014 74.5159 158.29 76.4372L161.953 100.999C162.245 102.905 160.911 104.703 158.995 104.98Z" fill="#E62323"/>
<path d="M24.877 99.5845L29.5673 98.8774L34.3189 109.883L35.9743 97.9091L39.8523 97.325L44.9411 108.284L46.3053 96.3567L50.9649 95.665L48.4052 114.74L43.8682 115.416L38.9939 104.887L37.3998 116.384L32.8934 117.061L24.877 99.5845Z" fill="white"/>
<path d="M56.4838 94.8504L60.9135 94.1895L70.4321 111.45L65.6345 112.173L63.8564 108.776L57.9246 109.667L57.2348 113.433L52.4219 114.156L56.4838 94.8504ZM58.6603 105.61L61.9405 105.118L59.5953 100.614L58.6603 105.61Z" fill="white"/>
<path d="M68.8828 92.9907L76.8993 91.7918C80.9152 91.1924 83.5822 93.3596 84.088 96.7718C84.3486 98.524 83.7355 99.8152 82.5399 100.707C83.7508 101.321 84.6398 102.428 85.0077 103.888L86.3566 109.053L81.6969 109.744L80.44 105.256C80.1641 104.257 79.2751 103.688 78.2635 103.842L75.3205 104.288L76.2555 110.559L71.5958 111.251L68.8828 92.9907ZM77.8036 99.8766C79.2904 99.6614 79.8422 98.5548 79.6736 97.4327C79.505 96.3107 78.662 95.4192 77.1752 95.6498L74.1249 96.1109L74.7534 100.338L77.8036 99.8766Z" fill="white"/>
<path d="M86.127 90.4081L91.1851 89.655L97.96 100.599L101.24 88.1487L106.268 87.3955L108.981 105.671L104.704 106.316L103.263 96.6485L100.566 106.931L97.2856 107.423L91.6756 98.3853L93.1164 108.053L88.84 108.699L86.127 90.4081Z" fill="white"/>
<path d="M110.115 99.0611L114.544 98.4002C114.882 99.9219 116.062 100.767 117.625 100.521C119.005 100.322 119.787 99.5223 119.649 98.5078C119.189 95.4337 110.666 99.553 109.563 92.1137C109.103 89.0089 111.418 86.396 115.142 85.8273C119.204 85.2124 122.239 87.1337 122.821 90.715L118.453 91.376C118.177 90.2232 117.181 89.593 115.74 89.8082C114.59 89.9773 113.916 90.6382 114.039 91.4528C114.544 94.8804 123.159 90.3462 124.262 97.7393C124.783 101.213 122.408 103.857 118.208 104.487C114.039 105.132 110.835 102.996 110.115 99.0611Z" fill="white"/>
<path d="M128.6 88.1022L123.389 88.8861L122.791 84.9206L137.843 82.6611L138.441 86.6267L133.229 87.4106L135.36 101.72L130.731 102.412L128.6 88.1022Z" fill="white"/>
<path d="M139.069 82.477L151.914 80.5557L152.512 84.5212L144.311 85.7509L144.756 88.7788L151.209 87.8105L151.807 91.776L145.354 92.7444L145.844 96.0797L154.336 94.804L154.934 98.7696L141.813 100.737L139.069 82.477Z" fill="white"/>
</g>
<defs>
<radialGradient id="paint0_radial_6330_2362" cx="0" cy="0" r="1" gradientUnits="userSpaceOnUse" gradientTransform="translate(77.5702 39.4441) scale(91.4652 111.017)">
<stop stop-color="#FFE682"/>
<stop offset="0.2034" stop-color="#FFE47F"/>
<stop offset="0.3763" stop-color="#FFDD74"/>
<stop offset="0.5382" stop-color="#FFD363"/>
<stop offset="0.6933" stop-color="#FFC34A"/>
<stop offset="0.8436" stop-color="#FFB02A"/>
<stop offset="0.9884" stop-color="#FF9803"/>
<stop offset="0.9994" stop-color="#FF9600"/>
</radialGradient>
<clipPath id="clip0_6330_2362">
<rect width="162" height="166" fill="white"/>
</clipPath>
</defs>
</svg>
